<?xml version="1.0" encoding="utf-8"?>
<!-- Generator: Adobe Illustrator 27.4.1, SVG Export Plug-In . SVG Version: 6.00 Build 0)  -->
<svg version="1.1" id="Layer_1" xmlns="http://www.w3.org/2000/svg" xmlns:xlink="http://www.w3.org/1999/xlink" x="0px" y="0px"
	 viewBox="0 0 1920 1080" style="enable-background:new 0 0 1920 1080;" xml:space="preserve">
<style type="text/css">
	.st0{fill:#E0E1E2;}
	.st1{fill:#BCBCBC;}
</style>
<path class="st0" d="M878,674l130-225l84,148c0,0,34-70,0-148s-118-90-152-86s-87,14-128,72s-24,131-24,131S800,633,878,674z"/>
<g>
	<g>
		<path class="st1" d="M921.64,664.73c0-4.79,0.04-9.38,0.14-11.83h-0.1c-0.98,3.29-5.95,15.37-9.07,23.1h-1.86
			c-2.35-5.99-7.49-19.43-8.61-23.14h-0.07c0.17,2.8,0.24,8.51,0.24,12.71V676h-1.89v-24.5h2.84c3.36,8.4,7.6,19.39,8.51,22.16h0.07
			c0.56-1.79,5.46-14,8.89-22.16h2.8V676h-1.89V664.73z"/>
		<path class="st1" d="M944.01,667.21c0,4.87-2.7,9.21-7.91,9.21c-4.73,0-7.67-3.89-7.67-9.17c0-5.01,2.77-9.17,7.84-9.17
			C940.93,658.08,944.01,661.72,944.01,667.21z M930.28,667.25c0,4.17,2.24,7.53,5.95,7.53c3.78,0,5.92-3.12,5.92-7.53
			c0-4.13-2.1-7.53-5.99-7.53C932.17,659.72,930.28,663.05,930.28,667.25z"/>
		<path class="st1" d="M948.34,662.91c0-1.54,0-3.01-0.03-4.41h1.71c0.07,0.56,0.1,2.83,0.07,3.33c0.77-1.79,2.21-3.75,5.81-3.75
			c3.12,0,5.88,1.75,5.88,6.58V676h-1.75v-11.06c0-3.12-1.29-5.15-4.34-5.15c-4.17,0-5.6,3.47-5.6,7.28V676h-1.75V662.91z"/>
		<path class="st1" d="M964.9,658.5h3.25v-5.46h1.75v5.46h4.17v1.65h-4.17v11.38c0,1.96,0.42,3.08,2.1,3.08
			c0.53,0,1.26-0.04,1.82-0.21v1.54c-0.59,0.25-1.44,0.32-2.17,0.32c-2.24,0-3.5-1.12-3.5-3.92v-12.18h-3.25V658.5z"/>
		<path class="st1" d="M977.64,663.01c0-1.5,0-3.15-0.04-4.52h1.72c0.04,0.59,0.1,2.1,0.07,3.12c0.74-1.75,2.35-3.54,5.25-3.54
			c2.45,0,4.38,1.23,5.08,3.47c0.88-1.82,2.63-3.47,5.71-3.47c2.7,0,5.5,1.54,5.5,6.41V676h-1.75v-11.31c0-2.34-0.84-4.9-4.1-4.9
			c-3.39,0-4.94,2.73-4.94,6.13V676h-1.71v-11.27c0-2.55-0.77-4.94-3.99-4.94c-3.4,0-5.04,3.01-5.04,6.58V676h-1.75V663.01z"/>
		<path class="st1" d="M1006.65,650.2h1.75v3.4h-1.75V650.2z M1006.65,658.5h1.75V676h-1.75V658.5z"/>
		<path class="st1" d="M1027.65,650.2v20.76c0,1.68,0,3.29,0.04,5.04h-1.68c-0.07-0.42-0.1-2.07-0.1-2.94
			c-0.88,2.14-2.84,3.36-5.88,3.36c-4.55,0-7.28-3.71-7.28-8.96c0-5.39,2.98-9.38,7.74-9.38c3.5,0,4.9,1.5,5.43,2.62v-10.5H1027.65z
			 M1014.6,667.39c0,4.8,2.49,7.39,5.5,7.39c4.62,0,5.88-3.18,5.88-7.95c0-4.52-1.08-7.11-5.57-7.11
			C1016.94,659.72,1014.6,662.49,1014.6,667.39z"/>
		<path class="st1" d="M1032.62,676v-4.52h1.75V676H1032.62z"/>
		<path class="st1" d="M1052.22,670.85c-0.84,3.08-2.87,5.57-6.79,5.57c-4.38,0-7.49-3.25-7.49-9.1c0-4.8,2.56-9.24,7.7-9.24
			c4.45,0,6.27,3.15,6.58,5.6h-1.79c-0.53-2.03-1.86-3.96-4.83-3.96c-3.71,0-5.81,3.15-5.81,7.53c0,4.17,1.96,7.53,5.64,7.53
			c2.56,0,4.1-1.29,5.01-3.92H1052.22z"/>
		<path class="st1" d="M1070.46,667.21c0,4.87-2.7,9.21-7.91,9.21c-4.73,0-7.67-3.89-7.67-9.17c0-5.01,2.77-9.17,7.84-9.17
			C1067.38,658.08,1070.46,661.72,1070.46,667.21z M1056.74,667.25c0,4.17,2.24,7.53,5.95,7.53c3.78,0,5.92-3.12,5.92-7.53
			c0-4.13-2.1-7.53-5.99-7.53C1058.63,659.72,1056.74,663.05,1056.74,667.25z"/>
		<path class="st1" d="M1074.8,663.01c0-1.5,0-3.15-0.04-4.52h1.72c0.04,0.59,0.1,2.1,0.07,3.12c0.74-1.75,2.35-3.54,5.25-3.54
			c2.45,0,4.38,1.23,5.08,3.47c0.88-1.82,2.63-3.47,5.71-3.47c2.7,0,5.5,1.54,5.5,6.41V676h-1.75v-11.31c0-2.34-0.84-4.9-4.1-4.9
			c-3.39,0-4.94,2.73-4.94,6.13V676h-1.71v-11.27c0-2.55-0.77-4.94-3.99-4.94c-3.4,0-5.04,3.01-5.04,6.58V676h-1.75V663.01z"/>
	</g>
</g>
</svg>
