<?xml version="1.0" encoding="utf-8"?>
<!-- Generator: Adobe Illustrator 27.4.1, SVG Export Plug-In . SVG Version: 6.00 Build 0)  -->
<svg version="1.1" id="Layer_1" xmlns="http://www.w3.org/2000/svg" xmlns:xlink="http://www.w3.org/1999/xlink" x="0px" y="0px"
	 viewBox="0 0 1054.74 1026.91" style="enable-background:new 0 0 1054.74 1026.91;" xml:space="preserve">
<style type="text/css">
	.st0{fill:#E0E1E2;}
	.st1{fill:#BCBCBC;}
</style>
<path class="st0" d="M305.67,1019L730.7,283.37l274.63,483.88c0,0,111.16-228.86,0-483.88S619.54-10.88,508.38,2.2
	S223.94,47.97,89.89,237.6S11.42,665.9,11.42,665.9S50.66,884.95,305.67,1019z"/>
<g>
	<g>
		<path class="st1" d="M448.35,988.69c0-15.68,0.11-30.67,0.46-38.68h-0.34c-3.2,10.76-19.45,50.23-29.64,75.52h-6.06
			c-7.67-19.57-24.49-63.51-28.15-75.64h-0.23c0.57,9.15,0.8,27.81,0.8,41.54v34.1h-6.18v-80.1h9.27
			c10.98,27.46,24.83,63.39,27.81,72.43h0.23c1.83-5.83,17.85-45.77,29.06-72.43h9.15v80.1h-6.18V988.69z"/>
		<path class="st1" d="M521.47,996.82c0,15.91-8.81,30.09-25.86,30.09c-15.45,0-25.06-12.7-25.06-29.98
			c0-16.36,9.04-29.98,25.63-29.98C511.4,966.95,521.47,978.85,521.47,996.82z M476.61,996.93c0,13.62,7.32,24.6,19.45,24.6
			c12.36,0,19.34-10.18,19.34-24.6c0-13.5-6.87-24.6-19.57-24.6C482.79,972.33,476.61,983.2,476.61,996.93z"/>
		<path class="st1" d="M535.66,982.74c0-5.04,0-9.84-0.11-14.42h5.61c0.23,1.83,0.34,9.27,0.23,10.87
			c2.52-5.83,7.21-12.24,18.99-12.24c10.18,0,19.22,5.72,19.22,21.51v37.07h-5.72v-36.16c0-10.18-4.23-16.82-14.19-16.82
			c-13.62,0-18.31,11.33-18.31,23.8v29.18h-5.72V982.74z"/>
		<path class="st1" d="M589.78,968.32h10.64v-17.85h5.72v17.85h13.62v5.38h-13.62v37.19c0,6.41,1.37,10.07,6.87,10.07
			c1.72,0,4.12-0.11,5.95-0.69v5.04c-1.95,0.8-4.69,1.03-7.09,1.03c-7.32,0-11.44-3.66-11.44-12.82V973.7h-10.64V968.32z"/>
		<path class="st1" d="M631.43,983.09c0-4.92,0-10.3-0.11-14.76h5.61c0.12,1.95,0.34,6.87,0.23,10.18
			c2.4-5.72,7.67-11.56,17.16-11.56c8.01,0,14.3,4,16.59,11.33c2.86-5.95,8.58-11.33,18.65-11.33c8.81,0,17.96,5.04,17.96,20.94
			v37.65h-5.72v-36.96c0-7.67-2.75-16.02-13.39-16.02c-11.1,0-16.13,8.93-16.13,20.03v32.95h-5.61v-36.84
			c0-8.35-2.52-16.13-13.04-16.13c-11.1,0-16.48,9.84-16.48,21.51v31.47h-5.72V983.09z"/>
		<path class="st1" d="M726.3,941.21h5.72v11.1h-5.72V941.21z M726.3,968.32h5.72v57.21h-5.72V968.32z"/>
		<path class="st1" d="M794.95,941.21v67.85c0,5.49,0,10.76,0.12,16.48h-5.49c-0.23-1.37-0.34-6.75-0.34-9.61
			c-2.86,6.98-9.27,10.98-19.22,10.98c-14.88,0-23.8-12.13-23.8-29.29c0-17.62,9.73-30.67,25.29-30.67
			c11.44,0,16.02,4.92,17.74,8.58v-34.33H794.95z M752.27,997.39c0,15.68,8.12,24.14,17.96,24.14c15.1,0,19.22-10.41,19.22-25.97
			c0-14.76-3.55-23.23-18.19-23.23C759.94,972.33,752.27,981.37,752.27,997.39z"/>
		<path class="st1" d="M811.2,1025.54v-14.76h5.72v14.76H811.2z"/>
		<path class="st1" d="M834.66,1025.54V973.7h-9.84v-5.38h9.84v-8.12c0-9.61,2.75-20.14,15.56-20.14c1.72,0,4.23,0.34,5.61,0.8v5.49
			c-1.72-0.46-4.46-0.69-6.18-0.69c-6.75,0-9.27,4.81-9.27,14.76v7.9h12.47v5.38h-12.47v51.83H834.66z"/>
		<path class="st1" d="M861.89,983.89c0-9.61-0.11-13.73-0.11-15.56h5.61c0.12,1.83,0.23,5.49,0.23,12.82
			c3.32-8.58,10.64-13.73,19.91-14.19v6.18c-11.9,0.8-19.91,9.04-19.91,22.66v29.75h-5.72V983.89z"/>
	</g>
</g>
</svg>
